<svg width="23" height="23" viewBox="0 0 23 23" fill="none" xmlns="http://www.w3.org/2000/svg">
<path d="M0.958313 19.1673C0.958313 18.638 1.38737 18.209 1.91665 18.209H15.3333C15.8626 18.209 16.2916 18.638 16.2916 19.1673C16.2916 19.6966 15.8626 20.1257 15.3333 20.1257H1.91665C1.38737 20.1257 0.958313 19.6966 0.958313 19.1673Z" fill="#12131A"/>
<path d="M22.0417 8.62435C22.0417 6.50726 20.3254 4.79102 18.2083 4.79102C17.6791 4.79102 17.25 5.22008 17.25 5.74935C17.25 6.27862 17.6791 6.70768 18.2083 6.70768C19.2669 6.70768 20.125 7.5658 20.125 8.62435C20.125 9.68289 19.2669 10.541 18.2083 10.541C17.6791 10.541 17.25 10.9701 17.25 11.4993C17.25 12.0286 17.6791 12.4577 18.2083 12.4577C20.3254 12.4577 22.0417 10.7414 22.0417 8.62435Z" fill="#12131A"/>
<path d="M0.958313 4.79167C0.958313 3.73312 1.81643 2.875 2.87498 2.875H13.4166C14.4752 2.875 15.3333 3.73312 15.3333 4.79167V9.58333C15.3333 12.759 12.759 15.3333 9.58331 15.3333H6.70831C3.53268 15.3333 0.958313 12.759 0.958313 9.58333V4.79167Z" fill="#12131A"/>
</svg>
