<svg width="27" height="25" viewBox="0 0 27 25" fill="none" xmlns="http://www.w3.org/2000/svg">
<path d="M22.6474 3.40115L22.6891 3.48336H22.7813H26.1562C26.3408 3.48336 26.5175 3.5558 26.6475 3.68416C26.7774 3.81245 26.85 3.98606 26.85 4.16669V7.50002C26.85 8.34369 26.5107 9.15318 25.9061 9.75032C25.3014 10.3475 24.4809 10.6834 23.625 10.6834H21.9375H21.7875V10.8334V23.3333C21.7875 23.735 21.626 24.1205 21.3378 24.4051C21.0496 24.6898 20.6584 24.85 20.25 24.85H16.875C16.4666 24.85 16.0754 24.6898 15.7872 24.4051C15.499 24.1205 15.3375 23.735 15.3375 23.3333V18.3333V18.1833H15.1875H10.125H9.975V18.3333V23.3333C9.975 23.735 9.81347 24.1205 9.52534 24.4051C9.23714 24.6898 8.84587 24.85 8.4375 24.85H5.0625C4.65413 24.85 4.26286 24.6898 3.97466 24.4051L3.86926 24.5118L3.97466 24.4051C3.68653 24.1205 3.525 23.735 3.525 23.3333V15.0004C3.52981 14.1421 3.76757 13.3006 4.21366 12.5636L4.34668 12.3439L4.08991 12.336C3.03484 12.3038 2.03414 11.8678 1.29909 11.1206C0.564147 10.3736 0.15231 9.37404 0.15 8.3332C0.150042 8.15263 0.22267 7.97908 0.352534 7.85082C0.482498 7.72246 0.659159 7.65002 0.84375 7.65002C1.02834 7.65002 1.205 7.72246 1.33497 7.85082C1.46487 7.97912 1.5375 8.15273 1.5375 8.33335L1.5375 8.33351C1.53824 9.03667 1.82141 9.71044 2.32425 10.2071C2.82703 10.7037 3.50835 10.9826 4.2186 10.9833H4.21875H5.64574H5.69062L5.72813 10.9587C6.53059 10.4313 7.47322 10.1499 8.43748 10.15H8.4375H14.3438H14.4938V10V0.83336C14.4937 0.743412 14.5118 0.654312 14.5468 0.571179C14.5819 0.48804 14.6333 0.41246 14.6983 0.348847L14.5933 0.241698L14.6983 0.348846C14.7632 0.285228 14.8404 0.23484 14.9253 0.200679C15.0103 0.166517 15.1013 0.149286 15.1932 0.150029L15.1945 0.150027C15.2846 0.149953 15.3738 0.167754 15.4567 0.202325C15.5396 0.236894 15.6145 0.287503 15.677 0.351055L15.677 0.351065L15.6785 0.352583L17.1171 1.77342L17.1609 1.81669H17.2225H20.8944C21.1486 1.81669 21.4353 1.90876 21.691 2.06463C21.9468 2.22056 22.1575 2.43184 22.2696 2.6553L22.2699 2.65583L22.6474 3.40115ZM20.25 23.4833H20.4V23.3333V13.0458V12.9284L20.286 12.9002L14.6993 11.5211L14.6816 11.5167H14.6633H8.4375H8.43734C7.5034 11.5177 6.60764 11.8845 5.94669 12.5373C5.28567 13.1902 4.91352 14.0758 4.9125 14.9998V15V23.3333V23.4833H5.0625H8.4375H8.5875V23.3333V16.8167H16.725V23.3333V23.4833H16.875H20.25ZM20.4 11.3292V9.31669H23.625C24.1117 9.31669 24.5789 9.12573 24.9236 8.78525C25.2684 8.44471 25.4625 7.98244 25.4625 7.50002V5.00002V4.85002H25.3125H21.8304L21.0282 3.26561L20.9866 3.18336H20.8944H16.5854L16.1367 2.74018L15.8813 2.48793V2.8469V10.2875V10.405L15.9953 10.4331L20.214 11.4748L20.4 11.5207V11.3292ZM20.1 5.00002C20.1 5.13476 20.0596 5.26662 19.9836 5.37895C19.9076 5.4913 19.7993 5.57914 19.6723 5.63109C19.5453 5.68304 19.4055 5.69667 19.2706 5.67016C19.1356 5.64365 19.0119 5.57826 18.915 5.48255C18.8181 5.38687 18.7524 5.26518 18.7258 5.13298C18.6991 5.0008 18.7128 4.86376 18.7651 4.73913C18.8173 4.61448 18.906 4.50764 19.0201 4.43233C19.1342 4.357 19.2686 4.31669 19.4062 4.31669C19.5908 4.31669 19.7675 4.38913 19.8975 4.51749C20.0274 4.64579 20.1 4.8194 20.1 5.00002Z" fill="black" stroke="white" stroke-width="0.3"/>
</svg>
