<svg width="21" height="18" viewBox="0 0 21 18" fill="none" xmlns="http://www.w3.org/2000/svg">
<path d="M10.0969 7.58805C6.96497 7.58805 2.52445 12.4395 2.52445 15.5019C2.52445 16.8811 3.58183 17.7051 5.35385 17.7051C7.28009 17.7051 8.55202 16.7139 10.0969 16.7139C11.6551 16.7139 12.9306 17.7051 14.8399 17.7051C16.6119 17.7051 17.6693 16.8811 17.6693 15.5019C17.6693 12.4395 13.2288 7.58805 10.0969 7.58805ZM4.28819 7.08971C3.87802 5.72035 2.61437 4.83353 1.46588 5.10859C0.317398 5.38364 -0.280903 6.71664 0.129271 8.086C0.539444 9.45535 1.80309 10.3422 2.95158 10.0671C4.10006 9.79206 4.69837 8.45906 4.28819 7.08971ZM7.62953 6.26849C8.84979 5.9468 9.46032 4.29488 8.99335 2.57894C8.52639 0.862992 7.15862 -0.266874 5.93835 0.0548157C4.71809 0.376506 4.10756 2.02843 4.57452 3.74437C5.04149 5.46031 6.40966 6.59057 7.62953 6.26849ZM18.7275 5.10898C17.579 4.83393 16.3157 5.72075 15.9052 7.0901C15.495 8.45946 16.0933 9.79245 17.2418 10.0675C18.3903 10.3426 19.6535 9.45575 20.0641 8.08639C20.4743 6.71704 19.876 5.38404 18.7275 5.10898ZM12.5642 6.26849C13.7845 6.59018 15.1523 5.46031 15.6192 3.74437C16.0862 2.02843 15.4757 0.376901 14.2554 0.0548157C13.0351 -0.267269 11.6674 0.862992 11.2004 2.57894C10.7334 4.29488 11.344 5.9468 12.5642 6.26849Z" fill="black"/>
</svg>
