<svg width="18" height="22" viewBox="0 0 18 22" fill="none" xmlns="http://www.w3.org/2000/svg">
<path fill-rule="evenodd" clip-rule="evenodd" d="M0 8.5C0 3.74575 4.09119 0 9 0C13.9088 0 18 3.74575 18 8.5C18 12.1267 15.7921 15.4878 13.7564 17.8417C12.72 19.0399 11.6866 20.0246 10.9129 20.7096C10.5254 21.0527 10.2013 21.3222 9.97225 21.5073C9.85768 21.5999 9.76677 21.6714 9.70344 21.7206C9.67178 21.7453 9.647 21.7643 9.6296 21.7776L9.60909 21.7932L9.60309 21.7977L9.60118 21.7991C9.60118 21.7991 9.6 21.8 9 21C8.4 21.8 8.3995 21.7996 8.3995 21.7996L8.39691 21.7977L8.39091 21.7932L8.3704 21.7776C8.353 21.7643 8.32822 21.7453 8.29656 21.7206C8.23323 21.6714 8.14232 21.5999 8.02775 21.5073C7.79871 21.3222 7.47461 21.0527 7.08709 20.7096C6.31344 20.0246 5.27996 19.0399 4.24364 17.8417C2.20791 15.4878 0 12.1267 0 8.5ZM9 19.7176C9.16817 19.5771 9.3662 19.4078 9.58709 19.2122C10.3134 18.5691 11.28 17.6476 12.2436 16.5333C14.2079 14.2622 16 11.3733 16 8.5C16 4.96995 12.9278 2 9 2C5.07221 2 2 4.96995 2 8.5C2 11.3733 3.79209 14.2622 5.75636 16.5333C6.72004 17.6476 7.68656 18.5691 8.41291 19.2122C8.6338 19.4078 8.83183 19.5771 9 19.7176Z" fill="black"/>
<path d="M9 21L9.6 21.8C9.24444 22.0667 8.75506 22.0663 8.3995 21.7996L9 21Z" fill="black"/>
<path fill-rule="evenodd" clip-rule="evenodd" d="M9.58709 19.2122C9.3662 19.4078 9.16817 19.5771 9 19.7176C8.83183 19.5771 8.6338 19.4078 8.41291 19.2122C7.68656 18.5691 6.72004 17.6476 5.75636 16.5333C3.79209 14.2622 2 11.3733 2 8.5C2 4.96995 5.07221 2 9 2C12.9278 2 16 4.96995 16 8.5C16 11.3733 14.2079 14.2622 12.2436 16.5333C11.28 17.6476 10.3134 18.5691 9.58709 19.2122ZM8.5 11H10.5C12.1568 11 13.5 9.65683 13.5 8C13.5 6.34317 12.1568 5 10.5 5H7.5C6.94772 5 6.5 5.44772 6.5 6V14C6.5 14.5523 6.94772 15 7.5 15C8.05229 15 8.5 14.5523 8.5 14V11Z" fill="black"/>
<path d="M8.5 7V9H10.5C11.0523 9 11.5 8.55227 11.5 8C11.5 7.44773 11.0523 7 10.5 7H8.5Z" fill="black"/>
</svg>
