<svg width="27" height="23" viewBox="0 0 27 23" fill="none" xmlns="http://www.w3.org/2000/svg">
<path d="M26.6043 11.4753C26.6043 12.2837 25.9334 12.917 25.1731 12.917H23.7419L23.7732 20.1121C23.7822 21.7065 22.4986 23 20.9109 23H6.58105C5.00226 23 3.71866 21.711 3.71866 20.1256V12.917H2.283C1.47795 12.917 0.851807 12.2882 0.851807 11.4753C0.851807 11.0711 0.985981 10.7118 1.29905 10.3974L12.7665 0.359305C13.0796 0.0449131 13.4373 0 13.7504 0C14.0635 0 14.4213 0.0898262 14.6896 0.314392L26.1123 10.3974C26.4701 10.7118 26.649 11.0711 26.6043 11.4753Z" fill="black"/>
</svg>
