<svg width="22" height="19" viewBox="0 0 22 19" fill="none" xmlns="http://www.w3.org/2000/svg">
<path d="M10.4844 3.77318L9.96875 3.1931L9.78828 2.99114C8.67109 1.73646 6.98242 1.15208 5.32812 1.45286C3.03789 1.86966 1.375 3.86341 1.375 6.19232V6.34271C1.375 7.7306 1.95078 9.05404 2.96914 9.99935L10.8711 17.3599C10.9055 17.39 10.9527 17.4115 11 17.4115C11.0473 17.4115 11.0945 17.3943 11.1289 17.3599L19.0352 9.99935C20.0492 9.05404 20.625 7.7306 20.625 6.34271V6.19232C20.625 3.86341 18.9621 1.86966 16.6719 1.45286C15.0176 1.15208 13.3289 1.73646 12.2117 2.99114L12.0312 3.1931L11.5156 3.77318C11.3867 3.91927 11.1977 4.00521 11 4.00521C10.8023 4.00521 10.6176 3.91927 10.4844 3.77318ZM11.984 1.31966C13.3633 0.241145 15.1551 -0.218621 16.9168 0.0993477C19.8602 0.636457 22 3.20169 22 6.19232V6.34271C22 7.88958 21.4371 9.3763 20.4273 10.5322C20.2812 10.6954 20.1309 10.8544 19.9676 11.0048L12.0613 18.3654C12.027 18.3997 11.9883 18.4298 11.9496 18.4599C11.6789 18.6704 11.3438 18.7822 11 18.7822C10.6047 18.7822 10.2266 18.6318 9.93437 18.3654L2.02813 11.0091C1.86484 10.8587 1.71445 10.6997 1.56836 10.5365C0.562891 9.3763 0 7.88958 0 6.34271V6.19232C0 3.20169 2.13984 0.636457 5.0832 0.0993477C6.84063 -0.218621 8.63242 0.236848 10.0117 1.31966C10.2996 1.54739 10.5703 1.79661 10.8152 2.07591L10.9957 2.27786L11.1762 2.07591C11.3566 1.87396 11.5457 1.68489 11.7477 1.51302C11.825 1.44857 11.9023 1.38411 11.9797 1.31966H11.984Z" fill="black"/>
</svg>
