<svg width="23" height="21" viewBox="0 0 23 21" fill="none" xmlns="http://www.w3.org/2000/svg">
<path d="M3.50347 14.8909L4.11217 15.5305L3.8096 16.3724L2.98753 18.6599L2.91943 18.8494L3.11157 18.7892L7.08715 17.5423L7.0872 17.5423L7.47484 17.4205L7.85793 17.5422C8.98652 17.9016 10.2097 18.0953 11.4955 18.0953C17.3844 18.0953 21.658 14.0942 21.658 9.74531C21.658 5.39637 17.3844 1.39531 11.4955 1.39531C5.60646 1.39531 1.3375 5.40118 1.3375 9.75C1.3375 11.6489 2.11768 13.4402 3.50347 14.8909ZM2.41842 20.3608L2.41825 20.3609L0.881017 20.8442L1.44626 19.2713L1.35215 19.2375L1.44626 19.2713L2.65017 15.9197L2.67104 15.8616L2.62845 15.8169C1.04481 14.1552 0.1 12.0464 0.1 9.75C0.1 4.43413 5.18716 0.1 11.5 0.1C17.8128 0.1 22.9 4.43413 22.9 9.75C22.9 15.0659 17.8128 19.4 11.5 19.4C10.0951 19.4 8.7487 19.1859 7.5053 18.7906L7.47526 18.7811L7.44518 18.7905L2.41842 20.3608Z" fill="black" stroke="white" stroke-width="0.2"/>
</svg>
