<svg width="16" height="16" viewBox="0 0 16 16" fill="none" xmlns="http://www.w3.org/2000/svg">
<path d="M1.6 0C0.716344 0 0 0.716344 0 1.6V5.6C0 6.48366 0.716344 7.2 1.6 7.2H5.6C6.48366 7.2 7.2 6.48366 7.2 5.6V1.6C7.2 0.716344 6.48366 0 5.6 0H1.6Z" fill="black"/>
<path d="M1.6 8.8C0.716344 8.8 0 9.51635 0 10.4V14.4C0 15.2837 0.716344 16 1.6 16H5.6C6.48366 16 7.2 15.2837 7.2 14.4V10.4C7.2 9.51635 6.48366 8.8 5.6 8.8H1.6Z" fill="black"/>
<path d="M10.4 0C9.51635 0 8.8 0.716344 8.8 1.6V5.6C8.8 6.48366 9.51635 7.2 10.4 7.2H14.4C15.2837 7.2 16 6.48366 16 5.6V1.6C16 0.716344 15.2837 0 14.4 0H10.4Z" fill="black"/>
<path d="M10.4 8.8C9.51635 8.8 8.8 9.51635 8.8 10.4V14.4C8.8 15.2837 9.51635 16 10.4 16H14.4C15.2837 16 16 15.2837 16 14.4V10.4C16 9.51635 15.2837 8.8 14.4 8.8H10.4Z" fill="black"/>
</svg>
