<svg width="19" height="16" viewBox="0 0 19 16" fill="none" xmlns="http://www.w3.org/2000/svg">
<path d="M5.53301 1.17143L5.14707 2.28571H2.375C1.06504 2.28571 0 3.31071 0 4.57143V13.7143C0 14.975 1.06504 16 2.375 16H16.625C17.935 16 19 14.975 19 13.7143V4.57143C19 3.31071 17.935 2.28571 16.625 2.28571H13.8529L13.467 1.17143C13.2258 0.471429 12.5467 0 11.7785 0H7.22148C6.45332 0 5.77422 0.471429 5.53301 1.17143ZM9.5 5.71429C10.4448 5.71429 11.351 6.07551 12.0191 6.71849C12.6872 7.36147 13.0625 8.23354 13.0625 9.14286C13.0625 10.0522 12.6872 10.9242 12.0191 11.5672C11.351 12.2102 10.4448 12.5714 9.5 12.5714C8.55517 12.5714 7.64903 12.2102 6.98093 11.5672C6.31283 10.9242 5.9375 10.0522 5.9375 9.14286C5.9375 8.23354 6.31283 7.36147 6.98093 6.71849C7.64903 6.07551 8.55517 5.71429 9.5 5.71429Z" fill="black"/>
</svg>
