<svg width="20" height="21" viewBox="0 0 20 21" fill="none" xmlns="http://www.w3.org/2000/svg">
<path d="M15.9457 0C13.9046 0 12.4163 2.50884 12.4163 4.76254C12.4163 7.01625 13.9897 8.84472 15.9457 8.84472C17.9017 8.84472 19.4751 7.01625 19.4751 4.76254C19.4751 2.50884 17.9443 0 15.9457 0Z" fill="black"/>
<path d="M7.05877 0C6.59102 0 6.20831 0.382704 6.20831 0.850454V4.37984C6.20831 5.31534 5.613 6.12327 4.80507 6.46345V0.850454C4.80507 0.382704 4.42236 0 3.95461 0C3.48686 0 3.10416 0.382704 3.10416 0.850454V6.46345C2.29623 6.12327 1.70091 5.31534 1.70091 4.37984V0.850454C1.70091 0.382704 1.3182 0 0.850454 0C0.382704 0 0 0.382704 0 0.850454V4.37984C0 6.5485 1.74343 8.29193 3.91209 8.29193C6.08075 8.29193 7.82418 6.5485 7.82418 4.37984V0.850454C7.8667 0.382704 7.484 0 7.05877 0Z" fill="black"/>
<path d="M15.9464 10.503C15.6487 10.503 15.3936 10.4605 15.0959 10.418V19.1776C15.0959 19.6454 15.4787 20.0281 15.9464 20.0281C16.4142 20.0281 16.7969 19.6454 16.7969 19.1776V10.418C16.4992 10.4605 16.2441 10.503 15.9464 10.503Z" fill="black"/>
<path d="M3.99737 9.90731C3.69971 9.90731 3.44457 9.86479 3.14691 9.82227V19.1347C3.14691 19.6025 3.52962 19.9852 3.99737 19.9852C4.46512 19.9852 4.84782 19.6025 4.84782 19.1347V9.86479C4.55016 9.90731 4.2525 9.90731 3.99737 9.90731Z" fill="black"/>
</svg>
