<svg width="22" height="22" viewBox="0 0 22 22" fill="none" xmlns="http://www.w3.org/2000/svg">
<path fill-rule="evenodd" clip-rule="evenodd" d="M1.83331 9.16667C1.83331 7.14162 3.47494 5.5 5.49998 5.5H16.5C18.525 5.5 20.1666 7.14162 20.1666 9.16667V16.5C20.1666 18.525 18.525 20.1667 16.5 20.1667H5.49998C3.47494 20.1667 1.83331 18.525 1.83331 16.5V9.16667ZM10.0833 10.0833C10.0833 9.57707 10.4937 9.16667 11 9.16667C11.5062 9.16667 11.9166 9.57707 11.9166 10.0833V11.9167H13.75C14.2562 11.9167 14.6666 12.3271 14.6666 12.8333C14.6666 13.3396 14.2562 13.75 13.75 13.75H11.9166V15.5833C11.9166 16.0896 11.5062 16.5 11 16.5C10.4937 16.5 10.0833 16.0896 10.0833 15.5833V13.75H8.24998C7.74372 13.75 7.33331 13.3396 7.33331 12.8333C7.33331 12.3271 7.74372 11.9167 8.24998 11.9167H10.0833V10.0833Z" fill="#12131A"/>
<path fill-rule="evenodd" clip-rule="evenodd" d="M9.16669 3.66732C8.66043 3.66732 8.25002 4.07772 8.25002 4.58398V5.50065C8.25002 6.00691 7.83961 6.41732 7.33335 6.41732C6.82709 6.41732 6.41669 6.00691 6.41669 5.50065V4.58398C6.41669 3.0652 7.6479 1.83398 9.16669 1.83398H12.8334C14.3521 1.83398 15.5834 3.0652 15.5834 4.58398V5.50065C15.5834 6.00691 15.1729 6.41732 14.6667 6.41732C14.1604 6.41732 13.75 6.00691 13.75 5.50065V4.58398C13.75 4.07772 13.3396 3.66732 12.8334 3.66732H9.16669Z" fill="#12131A"/>
</svg>
