<svg width="16" height="16" viewBox="0 0 16 16" fill="none" xmlns="http://www.w3.org/2000/svg">
<path d="M12.6666 6.66602V7.99935C12.6666 9.23703 12.175 10.424 11.2998 11.2992C10.4246 12.1744 9.23766 12.666 7.99998 12.666M7.99998 12.666C6.7623 12.666 5.57532 12.1744 4.70015 11.2992C3.82498 10.424 3.33331 9.23703 3.33331 7.99935V6.66602M7.99998 12.666V15.3327M5.33331 15.3327H10.6666M7.99998 0.666016C7.46955 0.666016 6.96084 0.876729 6.58577 1.2518C6.21069 1.62687 5.99998 2.13558 5.99998 2.66602V7.99935C5.99998 8.52978 6.21069 9.03849 6.58577 9.41356C6.96084 9.78863 7.46955 9.99935 7.99998 9.99935C8.53041 9.99935 9.03912 9.78863 9.41419 9.41356C9.78927 9.03849 9.99998 8.52978 9.99998 7.99935V2.66602C9.99998 2.13558 9.78927 1.62687 9.41419 1.2518C9.03912 0.876729 8.53041 0.666016 7.99998 0.666016Z" stroke="#090A0A" stroke-linecap="round" stroke-linejoin="round"/>
</svg>
